<svg width="176" height="176" viewBox="0 0 176 176" fill="none" xmlns="http://www.w3.org/2000/svg">
<rect width="176" height="176" rx="88" fill="#FF4400" fill-opacity="0.47"/>
<path d="M149.733 87.6578V114.556H136.284C136.284 111.703 135.15 108.966 133.132 106.948C131.115 104.93 128.378 103.797 125.524 103.797C122.671 103.797 119.934 104.93 117.916 106.948C115.898 108.966 114.765 111.703 114.765 114.556H63.6578C63.6578 111.703 62.5243 108.966 60.5065 106.948C58.4887 104.93 55.752 103.797 52.8984 103.797C50.0449 103.797 47.3082 104.93 45.2904 106.948C43.2726 108.966 42.1391 111.703 42.1391 114.556H26V50H117.455L126.681 60.7594H112.075V87.6578H149.733Z" fill="#DAD7E5"/>
<path d="M149.733 87.6578V109.177H134.831C133.885 107.546 132.528 106.193 130.894 105.252C129.261 104.311 127.409 103.816 125.524 103.816C123.639 103.816 121.787 104.311 120.154 105.252C118.521 106.193 117.163 107.546 116.217 109.177H90.5563C74.8617 109.177 59.8099 102.942 48.7121 91.8442C37.6144 80.7464 31.3797 65.6946 31.3797 50H117.455L126.681 60.7594H112.075V87.6578H149.733Z" fill="#EDEBF2"/>
<path d="M149.733 87.6578H112.075V60.7594H126.681L149.733 87.6578Z" fill="#9FDBF3"/>
<path d="M147.42 84.968H130.904C126.624 84.968 122.519 83.2676 119.492 80.241C116.465 77.2143 114.765 73.1093 114.765 68.8289V60.7594H126.681L147.42 84.968Z" fill="#B2E5FB"/>
<path d="M136.284 114.556C136.287 116.408 135.812 118.229 134.905 119.843C133.998 121.458 132.69 122.811 131.107 123.771C129.524 124.732 127.72 125.268 125.87 125.328C124.019 125.387 122.184 124.968 120.543 124.111C118.902 123.254 117.51 121.987 116.501 120.435C115.493 118.882 114.902 117.095 114.786 115.247C114.67 113.399 115.033 111.552 115.84 109.886C116.647 108.219 117.87 106.789 119.391 105.734C121.004 104.615 122.892 103.958 124.851 103.836C126.81 103.713 128.766 104.128 130.505 105.037C132.245 105.946 133.703 107.313 134.722 108.991C135.74 110.669 136.28 112.593 136.284 114.556Z" fill="#374F68"/>
<path d="M134.347 120.689C132.276 122.106 129.774 122.755 127.275 122.523C124.777 122.291 122.438 121.192 120.663 119.418C118.888 117.643 117.79 115.304 117.558 112.805C117.326 110.306 117.974 107.805 119.391 105.734C121.463 104.316 123.964 103.668 126.463 103.9C128.962 104.132 131.301 105.231 133.075 107.005C134.85 108.78 135.948 111.119 136.181 113.618C136.413 116.117 135.764 118.618 134.347 120.689Z" fill="#425B72"/>
<path d="M63.6578 114.556C63.6608 116.408 63.186 118.229 62.2792 119.843C61.3723 121.458 60.0642 122.811 58.4814 123.771C56.8986 124.732 55.0946 125.268 53.2439 125.328C51.3933 125.387 49.5586 124.968 47.9173 124.111C46.2761 123.254 44.8839 121.987 43.8753 120.435C42.8667 118.882 42.2759 117.095 42.1601 115.247C42.0443 113.399 42.4073 111.552 43.2141 109.886C44.0209 108.219 45.2442 106.789 46.7656 105.734C48.3783 104.615 50.2664 103.958 52.2254 103.836C54.1844 103.713 56.1397 104.128 57.8795 105.037C59.6193 105.946 61.0774 107.313 62.0959 108.991C63.1145 110.669 63.6546 112.593 63.6578 114.556Z" fill="#374F68"/>
<path d="M61.7211 120.689C59.65 122.106 57.1486 122.755 54.6497 122.523C52.1508 122.291 49.8117 121.192 48.0372 119.418C46.2626 117.643 45.1642 115.304 44.932 112.805C44.6998 110.306 45.3484 107.805 46.7656 105.734C48.8368 104.316 51.3382 103.668 53.8371 103.9C56.3359 104.132 58.675 105.231 60.4496 107.005C62.2242 108.78 63.3226 111.119 63.5548 113.618C63.787 116.117 63.1384 118.618 61.7211 120.689Z" fill="#425B72"/>
<path d="M128.214 114.556C128.214 113.843 127.931 113.159 127.426 112.654C126.922 112.15 126.238 111.866 125.524 111.866C124.811 111.866 124.127 112.15 123.622 112.654C123.118 113.159 122.834 113.843 122.834 114.556C122.834 115.27 123.118 115.954 123.622 116.458C124.127 116.963 124.811 117.246 125.524 117.246C126.238 117.246 126.922 116.963 127.426 116.458C127.931 115.954 128.214 115.27 128.214 114.556Z" fill="#DAD7E5"/>
<path d="M55.5883 114.556C55.5883 113.843 55.3049 113.159 54.8005 112.654C54.296 112.15 53.6119 111.866 52.8985 111.866C52.1851 111.866 51.5009 112.15 50.9965 112.654C50.492 113.159 50.2086 113.843 50.2086 114.556C50.2086 115.27 50.492 115.954 50.9965 116.458C51.5009 116.963 52.1851 117.246 52.8985 117.246C53.6119 117.246 54.296 116.963 54.8005 116.458C55.3049 115.954 55.5883 115.27 55.5883 114.556Z" fill="#DAD7E5"/>
<path d="M69.0375 63.4492H42.139V90.3477H69.0375V63.4492Z" fill="#A87E6B"/>
<path d="M69.0375 63.4492V87.6578H60.968C56.6876 87.6578 52.5826 85.9575 49.5559 82.9308C46.5293 79.9041 44.8289 75.7991 44.8289 71.5188V63.4492H69.0375Z" fill="#BE927C"/>
<path d="M60.968 63.4492H50.2086V68.8289H60.968V63.4492Z" fill="#F6CCAF"/>
<path d="M60.968 63.4492H52.8984V66.1391H60.968V63.4492Z" fill="#FFDEC7"/>
<path d="M87.8664 50V74.2086C87.8664 74.922 87.5831 75.6062 87.0786 76.1106C86.5742 76.6151 85.89 76.8984 85.1766 76.8984C84.4632 76.8984 83.779 76.6151 83.2746 76.1106C82.7701 75.6062 82.4868 74.922 82.4868 74.2086V50H87.8664Z" fill="#DAD7E5"/>
<path d="M149.733 95.7274V101.107H141.663C140.95 101.107 140.266 100.824 139.761 100.319C139.257 99.8148 138.974 99.1306 138.974 98.4172C138.974 97.7038 139.257 97.0196 139.761 96.5152C140.266 96.0107 140.95 95.7274 141.663 95.7274H149.733Z" fill="#FFDE76"/>
<path d="M101.316 90.3477H98.6258C97.9124 90.3477 97.2283 90.0643 96.7238 89.5598C96.2194 89.0554 95.936 88.3712 95.936 87.6578C95.936 86.9444 96.2194 86.2603 96.7238 85.7558C97.2283 85.2514 97.9124 84.968 98.6258 84.968H101.316C102.029 84.968 102.713 85.2514 103.218 85.7558C103.722 86.2603 104.006 86.9444 104.006 87.6578C104.006 88.3712 103.722 89.0554 103.218 89.5598C102.713 90.0643 102.029 90.3477 101.316 90.3477Z" fill="#425B72"/>
<path d="M36.7594 106.487H26V101.107H36.7594C37.4728 101.107 38.1569 101.39 38.6614 101.895C39.1658 102.399 39.4492 103.084 39.4492 103.797C39.4492 104.51 39.1658 105.194 38.6614 105.699C38.1569 106.203 37.4728 106.487 36.7594 106.487Z" fill="#DB5669"/>
</svg>
