<svg width="176" height="176" viewBox="0 0 176 176" fill="none" xmlns="http://www.w3.org/2000/svg">
<circle cx="88" cy="88" r="88" fill="#FF4400" fill-opacity="0.47"/>
<path d="M49 55.6758V110.645C49 114.556 52.1703 117.726 56.0811 117.726H120.361C124.272 117.726 127.442 114.556 127.442 110.645V55.6758H49Z" fill="#E3E3E3"/>
<path d="M127.442 40.1515C127.442 36.2406 124.272 33.0703 120.361 33.0703H56.0811C52.1703 33.0703 49 36.2406 49 40.1515V50.9609H127.442V40.1515Z" fill="#FF6650"/>
<path d="M127.442 50.9609H49V55.6758H127.442V50.9609Z" fill="#CF5341"/>
<path d="M62.4281 43.1249C64.4679 43.1249 66.1215 41.4713 66.1215 39.4315C66.1215 37.3917 64.4679 35.7381 62.4281 35.7381C60.3883 35.7381 58.7347 37.3917 58.7347 39.4315C58.7347 41.4713 60.3883 43.1249 62.4281 43.1249Z" fill="#CF5341"/>
<path d="M75.3246 43.1249C77.3644 43.1249 79.018 41.4713 79.018 39.4315C79.018 37.3917 77.3644 35.7381 75.3246 35.7381C73.2848 35.7381 71.6312 37.3917 71.6312 39.4315C71.6312 41.4713 73.2848 43.1249 75.3246 43.1249Z" fill="#CF5341"/>
<path d="M88.2211 43.1249C90.2609 43.1249 91.9145 41.4713 91.9145 39.4315C91.9145 37.3917 90.2609 35.7381 88.2211 35.7381C86.1813 35.7381 84.5277 37.3917 84.5277 39.4315C84.5277 41.4713 86.1813 43.1249 88.2211 43.1249Z" fill="#CF5341"/>
<path d="M101.118 43.1249C103.157 43.1249 104.811 41.4713 104.811 39.4315C104.811 37.3917 103.157 35.7381 101.118 35.7381C99.0778 35.7381 97.4242 37.3917 97.4242 39.4315C97.4242 41.4713 99.0778 43.1249 101.118 43.1249Z" fill="#CF5341"/>
<path d="M114.014 43.1249C116.054 43.1249 117.707 41.4713 117.707 39.4315C117.707 37.3917 116.054 35.7381 114.014 35.7381C111.974 35.7381 110.321 37.3917 110.321 39.4315C110.321 41.4713 111.974 43.1249 114.014 43.1249Z" fill="#CF5341"/>
<path d="M62.3838 40.9766C61.4649 40.9766 60.7197 40.2313 60.7197 39.3125V27.6641C60.7197 26.7452 61.4649 26 62.3838 26C63.3026 26 64.0479 26.7452 64.0479 27.6641V39.3125C64.0479 40.2313 63.3026 40.9766 62.3838 40.9766Z" fill="#E3E3E3"/>
<path d="M75.4189 40.9766C74.5001 40.9766 73.7549 40.2313 73.7549 39.3125V27.6641C73.7549 26.7452 74.5001 26 75.4189 26C76.3378 26 77.083 26.7452 77.083 27.6641V39.3125C77.083 40.2313 76.3378 40.9766 75.4189 40.9766Z" fill="#E3E3E3"/>
<path d="M88.1768 40.9766C87.2579 40.9766 86.5127 40.2313 86.5127 39.3125V27.6641C86.5127 26.7452 87.2579 26 88.1768 26C89.0956 26 89.8408 26.7452 89.8408 27.6641V39.3125C89.8408 40.2313 89.0956 40.9766 88.1768 40.9766Z" fill="#E3E3E3"/>
<path d="M101.212 40.9766C100.293 40.9766 99.5479 40.2313 99.5479 39.3125V27.6641C99.5479 26.7452 100.293 26 101.212 26C102.131 26 102.876 26.7452 102.876 27.6641V39.3125C102.876 40.2313 102.131 40.9766 101.212 40.9766Z" fill="#E3E3E3"/>
<path d="M113.97 40.9766C113.051 40.9766 112.306 40.2313 112.306 39.3125V27.6641C112.306 26.7452 113.051 26 113.97 26C114.889 26 115.634 26.7452 115.634 27.6641V39.3125C115.634 40.2313 114.889 40.9766 113.97 40.9766Z" fill="#E3E3E3"/>
<path d="M67.376 89.4967C67.376 90.98 66.1737 92.1823 64.6905 92.1823H57.0261C55.5429 92.1823 54.3406 90.98 54.3406 89.4967V81.8323C54.3406 80.3491 55.5429 79.1468 57.0261 79.1468H64.6905C66.1737 79.1468 67.376 80.3491 67.376 81.8323V89.4967Z" fill="#808080"/>
<path d="M85.6807 89.4967C85.6807 90.98 84.4784 92.1823 82.9952 92.1823H75.3308C73.8476 92.1823 72.6453 90.98 72.6453 89.4967V81.8323C72.6453 80.3491 73.8476 79.1468 75.3308 79.1468H82.9952C84.4784 79.1468 85.6807 80.3491 85.6807 81.8323V89.4967Z" fill="#808080"/>
<path d="M103.708 89.4967C103.708 90.98 102.506 92.1823 101.023 92.1823H93.3581C91.8749 92.1823 90.6726 90.98 90.6726 89.4967V81.8323C90.6726 80.3491 91.8749 79.1468 93.3581 79.1468H101.023C102.506 79.1468 103.708 80.3491 103.708 81.8323V89.4967Z" fill="#808080"/>
<path d="M122.013 89.4967C122.013 90.98 120.81 92.1823 119.327 92.1823H111.663C110.18 92.1823 108.977 90.98 108.977 89.4967V81.8323C108.977 80.3491 110.18 79.1468 111.663 79.1468H119.327C120.81 79.1468 122.013 80.3491 122.013 81.8323V89.4967Z" fill="#808080"/>
<path d="M85.725 70.0827C85.725 71.5659 84.5227 72.7682 83.0395 72.7682H75.3751C73.8919 72.7682 72.6896 71.5659 72.6896 70.0827V62.4183C72.6896 60.935 73.8919 59.7328 75.3751 59.7328H83.0395C84.5227 59.7328 85.725 60.935 85.725 62.4183V70.0827Z" fill="#808080"/>
<path d="M103.752 70.0827C103.752 71.5659 102.55 72.7682 101.067 72.7682H93.4024C91.9192 72.7682 90.7169 71.5659 90.7169 70.0827V62.4183C90.7169 60.935 91.9192 59.7328 93.4024 59.7328H101.067C102.55 59.7328 103.752 60.935 103.752 62.4183V70.0827Z" fill="#FFD161"/>
<path d="M122.057 70.0827C122.057 71.5659 120.855 72.7682 119.372 72.7682H111.707C110.224 72.7682 109.022 71.5659 109.022 70.0827V62.4183C109.022 60.935 110.224 59.7328 111.707 59.7328H119.372C120.855 59.7328 122.057 60.935 122.057 62.4183V70.0827Z" fill="#808080"/>
<path d="M67.4203 108.911C67.4203 110.394 66.218 111.596 64.7348 111.596H57.0704C55.5872 111.596 54.3849 110.394 54.3849 108.911V101.246C54.3849 99.7632 55.5872 98.5609 57.0704 98.5609H64.7348C66.218 98.5609 67.4203 99.7632 67.4203 101.246V108.911Z" fill="#808080"/>
<path d="M85.725 108.911C85.725 110.394 84.5227 111.596 83.0395 111.596H75.3751C73.8919 111.596 72.6896 110.394 72.6896 108.911V101.246C72.6896 99.7632 73.8919 98.5609 75.3751 98.5609H83.0395C84.5227 98.5609 85.725 99.7632 85.725 101.246V108.911Z" fill="#2FB49F"/>
<path d="M103.752 108.911C103.752 110.394 102.55 111.596 101.067 111.596H93.4024C91.9192 111.596 90.7169 110.394 90.7169 108.911V101.246C90.7169 99.7632 91.9192 98.5609 93.4024 98.5609H101.067C102.55 98.5609 103.752 99.7632 103.752 101.246V108.911Z" fill="#808080"/>
<path d="M122.057 108.911C122.057 110.394 120.855 111.596 119.372 111.596H111.707C110.224 111.596 109.022 110.394 109.022 108.911V101.246C109.022 99.7632 110.224 98.5609 111.707 98.5609H119.372C120.855 98.5609 122.057 99.7632 122.057 101.246V108.911Z" fill="#808080"/>
<path d="M124.825 139.568C137.528 139.568 147.825 129.271 147.825 116.568C147.825 103.866 137.528 93.5683 124.825 93.5683C112.123 93.5683 101.825 103.866 101.825 116.568C101.825 129.271 112.123 139.568 124.825 139.568Z" fill="#4A4A4A"/>
<path d="M124.91 134.339C134.873 134.339 142.95 126.262 142.95 116.298C142.95 106.334 134.873 98.2573 124.91 98.2573C114.946 98.2573 106.869 106.334 106.869 116.298C106.869 126.262 114.946 134.339 124.91 134.339Z" fill="white"/>
<path d="M124.91 119.71C126.794 119.71 128.321 118.182 128.321 116.298C128.321 114.414 126.794 112.887 124.91 112.887C123.026 112.887 121.498 114.414 121.498 116.298C121.498 118.182 123.026 119.71 124.91 119.71Z" fill="#4A4A4A"/>
<path d="M124.977 117.037C124.592 117.037 124.28 116.725 124.28 116.339V101.686C124.28 101.301 124.592 100.988 124.977 100.988C125.363 100.988 125.675 101.301 125.675 101.686V116.339C125.675 116.725 125.363 117.037 124.977 117.037Z" fill="#4A4A4A"/>
<path d="M132.456 123.627C132.114 123.627 131.77 123.52 131.476 123.298L123.929 117.597C123.211 117.055 123.069 116.034 123.611 115.317C124.152 114.599 125.174 114.457 125.891 114.999L133.439 120.7C134.156 121.242 134.299 122.263 133.757 122.98C133.437 123.404 132.949 123.627 132.456 123.627Z" fill="#4A4A4A"/>
<path d="M75.4782 100.174H33.2173C31.9207 100.174 30.8695 101.225 30.8695 102.522V130.696C30.8695 131.992 31.9207 133.043 33.2173 133.043H75.4782C76.7749 133.043 77.826 131.992 77.826 130.696V102.522C77.826 101.225 76.7749 100.174 75.4782 100.174Z" fill="#4AC6B7"/>
<path d="M75.4783 100.174H71.9565C72.5792 100.174 73.1764 100.421 73.6167 100.862C74.057 101.302 74.3044 101.899 74.3044 102.522V130.696C74.3044 131.318 74.057 131.916 73.6167 132.356C73.1764 132.796 72.5792 133.043 71.9565 133.043H75.4783C76.101 133.043 76.6981 132.796 77.1384 132.356C77.5788 131.916 77.8261 131.318 77.8261 130.696V102.522C77.8261 101.899 77.5788 101.302 77.1384 100.862C76.6981 100.421 76.101 100.174 75.4783 100.174Z" fill="#37B7A4"/>
<path d="M77.826 106.043H30.8695V114.261H77.826V106.043Z" fill="#29A892"/>
<path d="M77.8261 106.043H74.3043V114.261H77.8261V106.043Z" fill="#1B967E"/>
<path d="M68.4348 127.174C70.3798 127.174 71.9566 125.597 71.9566 123.652C71.9566 121.707 70.3798 120.13 68.4348 120.13C66.4898 120.13 64.9131 121.707 64.9131 123.652C64.9131 125.597 66.4898 127.174 68.4348 127.174Z" fill="#FFBC5A"/>
<path d="M62.5652 127.174C64.5102 127.174 66.0869 125.597 66.0869 123.652C66.0869 121.707 64.5102 120.13 62.5652 120.13C60.6202 120.13 59.0435 121.707 59.0435 123.652C59.0435 125.597 60.6202 127.174 62.5652 127.174Z" fill="#E05555"/>
<path d="M35.5683 142.435C33.5054 141.679 26.174 138.532 26.174 131.971V122.411L35.5653 118.957L44.9566 122.411V131.971C44.9566 138.564 37.6349 141.686 35.5683 142.435Z" fill="#D3DBEF"/>
<path d="M35.5653 133.043C35.4111 133.044 35.2585 133.013 35.1161 132.954C34.9736 132.895 34.8443 132.809 34.7353 132.7L32.3875 130.352C32.1737 130.13 32.0554 129.834 32.058 129.526C32.0607 129.218 32.1842 128.924 32.4018 128.706C32.6195 128.488 32.9139 128.365 33.2217 128.362C33.5295 128.36 33.826 128.478 34.0474 128.692L35.438 130.082L38.1479 126.47C38.3347 126.22 38.6128 126.056 38.921 126.012C39.2292 125.968 39.5423 126.048 39.7914 126.235C40.0405 126.422 40.2051 126.7 40.2492 127.008C40.2932 127.316 40.213 127.629 40.0262 127.878L36.5044 132.574C36.4036 132.709 36.275 132.82 36.1274 132.9C35.9797 132.981 35.8164 133.029 35.6486 133.041C35.6209 133.042 35.5928 133.043 35.5653 133.043Z" fill="#8491C1"/>
<path d="M75.4783 99H33.2174C32.2837 99.001 31.3885 99.3724 30.7283 100.033C30.068 100.693 29.6967 101.588 29.6957 102.522V119.865L25.7687 121.309C25.5432 121.392 25.3485 121.542 25.2111 121.739C25.0736 121.936 24.9999 122.17 25 122.411V131.971C25 139.249 32.78 142.664 35.1646 143.538C35.2939 143.584 35.4304 143.609 35.568 143.609C35.7045 143.609 35.8399 143.585 35.9681 143.538C38.0919 142.767 44.483 139.984 45.8553 134.217H75.4783C76.412 134.216 77.3071 133.845 77.9674 133.185C78.6276 132.525 78.999 131.629 79 130.696V102.522C78.999 101.588 78.6276 100.693 77.9674 100.033C77.3071 99.3724 76.412 99.001 75.4783 99ZM32.0435 107.217H76.6522V113.087H32.0435V107.217ZM35.5698 141.18C33.1956 140.245 27.3478 137.388 27.3478 131.97V123.23L35.5652 120.208L43.7826 123.23V131.971C43.7826 137.416 37.9423 140.253 35.5698 141.18ZM76.6522 130.696C76.6519 131.007 76.5281 131.305 76.308 131.525C76.0879 131.745 75.7895 131.869 75.4783 131.87H46.1304V122.411C46.1304 122.17 46.0567 121.936 45.9193 121.739C45.7818 121.542 45.5872 121.392 45.3618 121.309L35.9705 117.855C35.709 117.759 35.4219 117.759 35.1605 117.855L32.0435 119.001V115.435H76.6522V130.696ZM32.0435 104.87V102.522C32.0438 102.21 32.1676 101.912 32.3877 101.692C32.6077 101.472 32.9061 101.348 33.2174 101.348H75.4783C75.7895 101.348 76.0879 101.472 76.308 101.692C76.5281 101.912 76.6519 102.21 76.6522 102.522V104.87H32.0435Z" fill="#231F20"/>
<path d="M62.5652 128.348C63.631 128.343 64.663 127.973 65.4882 127.298C66.1771 127.857 67.0104 128.21 67.8915 128.315C68.7726 128.42 69.6654 128.273 70.4666 127.892C71.2677 127.51 71.9443 126.909 72.418 126.159C72.8917 125.409 73.1431 124.54 73.1431 123.652C73.1431 122.765 72.8917 121.896 72.418 121.145C71.9443 120.395 71.2677 119.794 70.4666 119.413C69.6654 119.031 68.7726 118.885 67.8915 118.99C67.0104 119.095 66.1771 119.447 65.4882 120.006C64.663 119.332 63.631 118.961 62.5652 118.957C61.3198 118.957 60.1254 119.451 59.2448 120.332C58.3642 121.212 57.8695 122.407 57.8695 123.652C57.8695 124.898 58.3642 126.092 59.2448 126.973C60.1254 127.853 61.3198 128.348 62.5652 128.348ZM70.7825 123.652C70.7818 124.275 70.5342 124.871 70.0941 125.312C69.6539 125.752 69.0572 125.999 68.4347 126C67.8729 126.002 67.3296 125.799 66.9064 125.43C67.1404 124.866 67.2608 124.262 67.2608 123.652C67.2608 123.042 67.1404 122.438 66.9064 121.875C67.3295 121.505 67.8729 121.302 68.4347 121.304C69.0572 121.305 69.6539 121.553 70.0941 121.993C70.5342 122.433 70.7818 123.03 70.7825 123.652ZM62.5652 121.304C63.0295 121.304 63.4834 121.442 63.8695 121.7C64.2556 121.958 64.5566 122.325 64.7343 122.754C64.912 123.183 64.9585 123.655 64.8679 124.11C64.7773 124.566 64.5537 124.984 64.2253 125.312C63.897 125.641 63.4786 125.864 63.0232 125.955C62.5678 126.045 62.0957 125.999 61.6667 125.821C61.2377 125.644 60.871 125.343 60.613 124.957C60.355 124.57 60.2173 124.117 60.2173 123.652C60.218 123.03 60.4656 122.433 60.9058 121.993C61.3459 121.553 61.9427 121.305 62.5652 121.304Z" fill="#231F20"/>
<path d="M38.1479 126.47L35.438 130.082L34.0474 128.692C33.826 128.478 33.5295 128.36 33.2217 128.362C32.9139 128.365 32.6195 128.488 32.4018 128.706C32.1842 128.924 32.0607 129.218 32.058 129.526C32.0554 129.834 32.1737 130.13 32.3875 130.352L34.7353 132.7C34.8443 132.809 34.9736 132.895 35.1161 132.954C35.2585 133.013 35.4111 133.044 35.5653 133.043C35.5928 133.043 35.6209 133.042 35.6484 133.04C35.8162 133.028 35.9795 132.981 36.1272 132.9C36.2749 132.82 36.4036 132.709 36.5044 132.574L40.0262 127.878C40.213 127.629 40.2932 127.316 40.2492 127.008C40.2051 126.7 40.0405 126.422 39.7914 126.235C39.5423 126.048 39.2292 125.968 38.921 126.012C38.6128 126.056 38.3347 126.22 38.1479 126.47Z" fill="#231F20"/>
</svg>
