<svg width="76" height="44" viewBox="0 0 76 44" fill="none" xmlns="http://www.w3.org/2000/svg">
<path d="M14.32 20.54C14.0667 20.6333 13.86 20.68 13.7 20.68C13.4067 20.68 13.1267 20.58 12.86 20.38C12.6067 20.18 12.3933 19.9067 12.22 19.56L12.78 19.2C13.42 18.7733 13.8933 18.4467 14.2 18.22C15.2267 17.42 16.12 16.6733 16.88 15.98C17.0267 15.86 17.2 15.6133 17.4 15.24L17.68 14.76L17.32 14.58C17.28 14.5667 17.1867 14.5333 17.04 14.48C16.9067 14.4133 16.7933 14.3733 16.7 14.36C15.54 14.24 14.24 14.1333 12.8 14.04C12.3467 14 12.0533 14.2467 11.92 14.78L10.24 22.56C10.1467 22.96 10.0733 23.3133 10.02 23.62C9.96667 23.9133 9.92 24.16 9.88 24.36L9.7 25.26C9.64667 25.4733 9.56 25.6467 9.44 25.78C9.32 25.9 9.14667 25.9667 8.92 25.98L8.66 26C8.40667 26 8.22667 25.94 8.12 25.82C8.02667 25.7 7.98667 25.4867 8 25.18L8.04 24.38C8.12 22.8067 8.22 21.6267 8.34 20.84C8.42 20.2667 8.53333 19.6333 8.68 18.94C8.84 18.2467 8.94667 17.7933 9 17.58C9.18667 16.8067 9.32 16.22 9.4 15.82L8.36 15.64C8.2 15.2933 8.12 14.9933 8.12 14.74C8.12 14.3133 8.32 13.88 8.72 13.44C9 13.12 9.33333 12.86 9.72 12.66C10.1067 12.46 10.5067 12.3267 10.92 12.26C11.52 12.1933 12.0533 12.16 12.52 12.16C14.3467 12.16 16.2 12.5467 18.08 13.32C18.3067 13.4133 18.5333 13.56 18.76 13.76C18.9867 13.9467 19.1333 14.0667 19.2 14.12C19.72 14.56 19.98 15.02 19.98 15.5C19.98 15.82 19.88 16.1733 19.68 16.56C19.5733 16.7867 19.3933 17.0467 19.14 17.34C17.9 18.7 16.2933 19.7667 14.32 20.54ZM25.3305 24.98C25.2105 24.9267 25.0905 24.9 24.9705 24.9C24.8505 24.9 24.7438 24.9333 24.6505 25C24.5705 25.0533 24.4771 25.14 24.3705 25.26C24.2105 25.42 24.0438 25.5533 23.8705 25.66C23.7105 25.7533 23.4171 25.84 22.9905 25.92C22.8038 25.9467 22.6505 25.96 22.5305 25.96C21.9705 25.96 21.3838 25.84 20.7705 25.6C20.1705 25.3467 19.7438 25.0467 19.4905 24.7C19.2238 24.3267 19.0971 23.9267 19.1105 23.5C19.1238 22.86 19.3905 22.22 19.9105 21.58C20.4171 20.9667 20.8771 20.5333 21.2905 20.28C21.7171 20.0267 22.2971 19.8667 23.0305 19.8C23.1905 19.8 23.4171 19.7733 23.7105 19.72C24.0171 19.6667 24.1705 19.5933 24.1705 19.5C24.1705 19.3133 24.0838 19.1467 23.9105 19C23.7505 18.84 23.4171 18.76 22.9105 18.76C22.7238 18.76 22.4438 18.7733 22.0705 18.8C21.6971 18.8267 21.4371 18.84 21.2905 18.84C20.8371 18.84 20.5105 18.7667 20.3105 18.62C20.2571 18.5933 20.2305 18.4667 20.2305 18.24C20.2305 17.84 20.3705 17.5867 20.6505 17.48C21.2238 17.2667 21.8171 17.1533 22.4305 17.14C23.2038 17.14 23.9171 17.3133 24.5705 17.66C25.2371 17.9933 25.7238 18.4133 26.0305 18.92C26.3371 19.4267 26.5371 20.1267 26.6305 21.02C26.7371 22.02 26.7905 23.2933 26.7905 24.84C26.7905 25.2667 26.7305 25.5133 26.6105 25.58C26.5038 25.6467 26.4038 25.68 26.3105 25.68C26.1905 25.68 26.0771 25.6467 25.9705 25.58C25.8771 25.5 25.7705 25.3933 25.6505 25.26C25.5305 25.1133 25.4238 25.02 25.3305 24.98ZM22.1705 24.74C22.7971 24.5533 23.4105 24.2533 24.0105 23.84C24.1438 23.7467 24.2638 23.6267 24.3705 23.48C24.4771 23.3333 24.5438 23.24 24.5705 23.2C24.5971 23.16 24.6171 23.0467 24.6305 22.86C24.6571 22.66 24.6638 22.5 24.6505 22.38C24.6371 22.34 24.6105 22.2333 24.5705 22.06C24.5438 21.8867 24.4971 21.7333 24.4305 21.6C24.3638 21.4933 24.2571 21.3933 24.1105 21.3C23.9638 21.2067 23.8305 21.1667 23.7105 21.18C23.4571 21.1933 23.1838 21.2867 22.8905 21.46C22.5971 21.6333 22.3238 21.8667 22.0705 22.16C21.8171 22.4667 21.6171 22.78 21.4705 23.1C21.3371 23.4067 21.2705 23.6933 21.2705 23.96C21.2971 24.32 21.3971 24.56 21.5705 24.68C21.6638 24.7467 21.7771 24.78 21.9105 24.78C22.0171 24.78 22.1038 24.7667 22.1705 24.74ZM33.018 22.02C33.258 21.0467 33.4046 20.2933 33.458 19.76C33.5246 19.2133 33.638 18.8267 33.798 18.6C33.958 18.3733 34.2246 18.26 34.598 18.26C35.158 18.26 35.6046 18.3867 35.938 18.64C36.2713 18.8933 36.438 19.24 36.438 19.68C36.438 19.7333 36.4246 19.84 36.398 20C36.198 21.0933 35.8713 22.2333 35.418 23.42C34.698 25.3667 33.9246 27.3133 33.098 29.26C32.8446 29.8333 32.4646 30.3867 31.958 30.92C31.838 31.0533 31.7246 31.12 31.618 31.12C31.458 31.12 31.338 30.9467 31.258 30.6C31.178 30.24 31.138 29.8933 31.138 29.56C31.138 29.1733 31.178 28.7867 31.258 28.4C31.338 28.0267 31.4513 27.5733 31.598 27.04C31.7313 26.5333 31.8246 26.1533 31.878 25.9C31.9313 25.6333 31.958 25.4467 31.958 25.34C31.958 24.9267 31.758 24.5867 31.358 24.32C30.6646 23.8667 30.138 23.2933 29.778 22.6C29.4313 21.8933 29.1513 21.0533 28.938 20.08C28.9246 20.04 28.918 19.98 28.918 19.9C28.918 19.66 29.0113 19.4533 29.198 19.28C29.3846 19.1067 29.598 19.02 29.838 19.02C29.9846 19.02 30.1113 19.0467 30.218 19.1C30.5646 19.2467 30.838 19.4333 31.038 19.66C31.238 19.8733 31.3846 20.16 31.478 20.52C31.558 20.8533 31.678 21.2 31.838 21.56C31.998 21.92 32.0913 22.14 32.118 22.22L32.398 22.88H32.838L33.018 22.02ZM40.7297 25.08C40.9964 24.76 41.1897 24.5067 41.3097 24.32C41.4564 24.12 41.6097 24.02 41.7697 24.02C41.9297 24.02 42.0497 24.12 42.1297 24.32C42.3164 24.8533 42.4097 25.2733 42.4097 25.58C42.4097 25.7133 42.403 25.8133 42.3897 25.88C42.3364 26.1467 42.183 26.3333 41.9297 26.44C41.6897 26.5467 41.403 26.5867 41.0697 26.56C40.9497 26.56 40.743 26.56 40.4497 26.56C40.1697 26.56 39.923 26.52 39.7097 26.44C39.5097 26.36 39.3297 26.2267 39.1697 26.04C38.823 25.6267 38.6497 25.2267 38.6497 24.84C38.6497 21.72 38.6364 19.3733 38.6097 17.8L38.5897 14.28C38.5897 13.8133 38.543 13.3867 38.4497 13C38.4364 12.9333 38.4297 12.8533 38.4297 12.76C38.4297 12.2667 38.763 12.02 39.4297 12.02C39.8697 12.02 40.2364 12.1667 40.5297 12.46C40.8364 12.74 40.9764 13.1133 40.9497 13.58C40.9097 14.2867 40.8564 15.3467 40.7897 16.76L40.6697 19.16C40.563 21.4267 40.4897 23.1267 40.4497 24.26C40.4364 24.3933 40.443 24.54 40.4697 24.7C40.4964 24.86 40.5164 24.96 40.5297 25L40.7297 25.08ZM46.3003 18.2C46.4203 18.1867 46.5203 18.1867 46.6003 18.2C46.6803 18.2 46.7536 18.2 46.8203 18.2C46.9136 18.1867 47.0536 18.18 47.2403 18.18C48.147 18.18 49.0403 18.44 49.9203 18.96C50.307 19.2 50.5003 19.4533 50.5003 19.72C50.5003 20.0133 50.3003 20.2733 49.9003 20.5C49.567 20.7 49.2203 20.9333 48.8603 21.2C48.2203 21.6267 47.6736 21.96 47.2203 22.2C46.7803 22.44 46.2936 22.6067 45.7603 22.7C45.6803 22.7267 45.5936 22.8 45.5003 22.92C45.4203 23.0267 45.387 23.1067 45.4003 23.16C45.427 23.24 45.4736 23.4067 45.5403 23.66C45.607 23.9 45.6803 24.1067 45.7603 24.28C45.8536 24.44 45.9603 24.5733 46.0803 24.68C46.2136 24.7867 46.4136 24.84 46.6803 24.84C46.947 24.84 47.1936 24.8 47.4203 24.72C48.2203 24.3467 48.9803 23.88 49.7003 23.32C49.9136 23.1733 50.1003 23.1 50.2603 23.1C50.4603 23.1 50.6736 23.2067 50.9003 23.42C51.0603 23.5667 51.1403 23.72 51.1403 23.88C51.1403 24.0533 51.0136 24.2667 50.7603 24.52C49.627 25.6267 48.4203 26.18 47.1403 26.18C46.7936 26.18 46.367 26.1133 45.8603 25.98C45.007 25.7667 44.3536 25.2933 43.9003 24.56C43.447 23.8267 43.2203 22.9867 43.2203 22.04C43.2203 21.7467 43.2403 21.4667 43.2803 21.2C43.2936 21.1067 43.3203 20.9133 43.3603 20.62C43.4136 20.3133 43.4936 20.06 43.6003 19.86C44.107 18.86 45.007 18.3067 46.3003 18.2ZM47.4603 19.64C47.2203 19.56 47.007 19.52 46.8203 19.52C46.5136 19.52 46.2736 19.6133 46.1003 19.8C45.927 19.9867 45.787 20.2667 45.6803 20.64C46.0003 20.68 46.3403 20.6 46.7003 20.4C47.0736 20.1867 47.327 19.9333 47.4603 19.64ZM56.6113 23.64C56.4513 24.2933 56.1846 24.8 55.8113 25.16C55.4379 25.52 54.9979 25.7 54.4913 25.7C53.8379 25.7 53.1846 25.42 52.5313 24.86C53.0379 24.5933 53.3579 24.4333 53.4913 24.38C53.8379 24.22 54.1113 24 54.3113 23.72C54.5246 23.44 54.6313 23.1267 54.6313 22.78C54.6313 22.66 54.6246 22.5667 54.6113 22.5C54.5713 22.2067 54.5046 21.8933 54.4113 21.56C54.3179 21.2133 54.2579 20.9867 54.2313 20.88C54.1646 20.6533 54.0779 20.3133 53.9713 19.86C53.8913 19.5267 53.8179 19.1867 53.7513 18.84C53.6846 18.4933 53.6513 18.1867 53.6513 17.92C53.6513 17.48 53.7446 17.08 53.9313 16.72C54.1313 16.3467 54.4646 15.9933 54.9313 15.66C55.1313 15.5133 55.3579 15.3867 55.6113 15.28C55.8779 15.1733 56.1313 15.1133 56.3713 15.1C56.5446 15.0733 56.7379 15.1067 56.9513 15.2C57.1779 15.2933 57.3179 15.4067 57.3713 15.54C57.4246 15.66 57.4046 15.8333 57.3113 16.06C57.2179 16.2733 57.1046 16.4333 56.9713 16.54C56.1979 17.1133 55.8379 17.7533 55.8913 18.46C55.9179 18.86 56.0246 19.4467 56.2113 20.22C56.3446 20.7133 56.4379 21.14 56.4913 21.5C56.5046 21.6067 56.5379 21.82 56.5913 22.14C56.6579 22.46 56.6913 22.7533 56.6913 23.02C56.6913 23.26 56.6646 23.4667 56.6113 23.64ZM65.4867 24.98C65.3667 24.9267 65.2467 24.9 65.1267 24.9C65.0067 24.9 64.9001 24.9333 64.8067 25C64.7267 25.0533 64.6334 25.14 64.5267 25.26C64.3667 25.42 64.2001 25.5533 64.0267 25.66C63.8667 25.7533 63.5734 25.84 63.1467 25.92C62.9601 25.9467 62.8067 25.96 62.6867 25.96C62.1267 25.96 61.5401 25.84 60.9267 25.6C60.3267 25.3467 59.9001 25.0467 59.6467 24.7C59.3801 24.3267 59.2534 23.9267 59.2667 23.5C59.2801 22.86 59.5467 22.22 60.0667 21.58C60.5734 20.9667 61.0334 20.5333 61.4467 20.28C61.8734 20.0267 62.4534 19.8667 63.1867 19.8C63.3467 19.8 63.5734 19.7733 63.8667 19.72C64.1734 19.6667 64.3267 19.5933 64.3267 19.5C64.3267 19.3133 64.2401 19.1467 64.0667 19C63.9067 18.84 63.5734 18.76 63.0667 18.76C62.8801 18.76 62.6001 18.7733 62.2267 18.8C61.8534 18.8267 61.5934 18.84 61.4467 18.84C60.9934 18.84 60.6667 18.7667 60.4667 18.62C60.4134 18.5933 60.3867 18.4667 60.3867 18.24C60.3867 17.84 60.5267 17.5867 60.8067 17.48C61.3801 17.2667 61.9734 17.1533 62.5867 17.14C63.3601 17.14 64.0734 17.3133 64.7267 17.66C65.3934 17.9933 65.8801 18.4133 66.1867 18.92C66.4934 19.4267 66.6934 20.1267 66.7867 21.02C66.8934 22.02 66.9467 23.2933 66.9467 24.84C66.9467 25.2667 66.8867 25.5133 66.7667 25.58C66.6601 25.6467 66.5601 25.68 66.4667 25.68C66.3467 25.68 66.2334 25.6467 66.1267 25.58C66.0334 25.5 65.9267 25.3933 65.8067 25.26C65.6867 25.1133 65.5801 25.02 65.4867 24.98ZM62.3267 24.74C62.9534 24.5533 63.5667 24.2533 64.1667 23.84C64.3001 23.7467 64.4201 23.6267 64.5267 23.48C64.6334 23.3333 64.7001 23.24 64.7267 23.2C64.7534 23.16 64.7734 23.0467 64.7867 22.86C64.8134 22.66 64.8201 22.5 64.8067 22.38C64.7934 22.34 64.7667 22.2333 64.7267 22.06C64.7001 21.8867 64.6534 21.7333 64.5867 21.6C64.5201 21.4933 64.4134 21.3933 64.2667 21.3C64.1201 21.2067 63.9867 21.1667 63.8667 21.18C63.6134 21.1933 63.3401 21.2867 63.0467 21.46C62.7534 21.6333 62.4801 21.8667 62.2267 22.16C61.9734 22.4667 61.7734 22.78 61.6267 23.1C61.4934 23.4067 61.4267 23.6933 61.4267 23.96C61.4534 24.32 61.5534 24.56 61.7267 24.68C61.8201 24.7467 61.9334 24.78 62.0667 24.78C62.1734 24.78 62.2601 24.7667 62.3267 24.74Z" fill="#EC602E"/>
<mask id="path-2-outside-1_2_23" maskUnits="userSpaceOnUse" x="0" y="0" width="76" height="44" fill="black">
<rect fill="white" width="76" height="44"/>
<path fill-rule="evenodd" clip-rule="evenodd" d="M34.6881 29.161C31.509 33.3043 26.3384 36 20.5 36C10.835 36 3 28.6127 3 19.5C3 10.3873 10.835 3 20.5 3C27.3398 3 33.2632 6.69977 36.1416 12.0925C39.6366 6.63888 45.9304 3 53.1137 3C64.0966 3 73 11.5066 73 22C73 32.4934 64.0966 41 53.1137 41C44.7823 41 37.6476 36.105 34.6881 29.161Z"/>
</mask>
<path d="M34.6881 29.161L37.448 27.9848L35.4344 23.2602L32.3081 27.3348L34.6881 29.161ZM36.1416 12.0925L33.495 13.5052L35.9055 18.0211L38.6674 13.7112L36.1416 12.0925ZM32.3081 27.3348C29.6981 30.7363 25.408 33 20.5 33V39C27.2688 39 33.32 35.8723 37.0682 30.9872L32.3081 27.3348ZM20.5 33C12.3231 33 6 26.792 6 19.5H0C0 30.4334 9.34691 39 20.5 39V33ZM6 19.5C6 12.208 12.3231 6 20.5 6V0C9.34691 0 0 8.56659 0 19.5H6ZM20.5 6C26.255 6 31.1487 9.10939 33.495 13.5052L38.7882 10.6799C35.3776 4.29015 28.4247 0 20.5 0V6ZM38.6674 13.7112C41.6115 9.11728 46.9539 6 53.1137 6V0C44.9069 0 37.6617 4.16049 33.6158 10.4739L38.6674 13.7112ZM53.1137 6C62.5701 6 70 13.2909 70 22H76C76 9.7223 65.6231 0 53.1137 0V6ZM70 22C70 30.7091 62.5701 38 53.1137 38V44C65.6231 44 76 34.2777 76 22H70ZM53.1137 38C45.9639 38 39.928 33.8039 37.448 27.9848L31.9283 30.3372C35.3672 38.4061 43.6007 44 53.1137 44V38Z" fill="#FF4400" mask="url(#path-2-outside-1_2_23)"/>
</svg>
