<svg width="105" height="41" viewBox="0 0 105 41" fill="none" xmlns="http://www.w3.org/2000/svg">
<mask id="path-1-inside-1_175_48" fill="white">
<path fill-rule="evenodd" clip-rule="evenodd" d="M52 0H22.7945L22.7945 4.50002H0V36.5H22.7945L22.7945 41H52V0Z"/>
</mask>
<path d="M22.7945 0V-2.5H20.2945L20.2945 5.29816e-06L22.7945 0ZM52 0H54.5V-2.5H52V0ZM22.7945 4.50002V7.00002H25.2945L25.2945 4.50002L22.7945 4.50002ZM0 4.50002V2.00002H-2.5V4.50002H0ZM0 36.5H-2.5V39H0V36.5ZM22.7945 36.5L25.2945 36.5L25.2945 34H22.7945V36.5ZM22.7945 41L20.2945 41L20.2945 43.5H22.7945V41ZM52 41V43.5H54.5V41H52ZM22.7945 2.5H52V-2.5H22.7945V2.5ZM25.2945 4.50002L25.2945 -5.29816e-06L20.2945 5.29816e-06L20.2945 4.50003L25.2945 4.50002ZM0 7.00002H22.7945V2.00002H0V7.00002ZM2.5 36.5V4.50002H-2.5V36.5H2.5ZM22.7945 34H0V39H22.7945V34ZM25.2945 41L25.2945 36.5L20.2945 36.5L20.2945 41L25.2945 41ZM52 38.5H22.7945V43.5H52V38.5ZM49.5 0V41H54.5V0H49.5Z" fill="#FF4400" fill-opacity="0.49" mask="url(#path-1-inside-1_175_48)"/>
<path d="M10.8672 24.9258C10.7891 25.707 10.3594 26.1302 9.57812 26.1953C9.21354 26.1953 8.89453 26.0781 8.62109 25.8438C8.36068 25.5964 8.23047 25.2904 8.23047 24.9258V15.707C8.24349 15.3424 8.38021 15.043 8.64062 14.8086C8.90104 14.5612 9.21354 14.4375 9.57812 14.4375H17.7812C18.9271 14.4766 19.793 14.7305 20.3789 15.1992C20.9648 15.6549 21.388 16.1758 21.6484 16.7617C21.9089 17.3477 22.0391 17.9401 22.0391 18.5391C22.0391 19.1641 21.9089 19.7695 21.6484 20.3555C21.401 20.9414 20.9779 21.4688 20.3789 21.9375C19.793 22.3932 19.0443 22.6146 18.1328 22.6016H13.2109C12.8464 22.6016 12.5404 22.4714 12.293 22.2109C12.0326 21.9635 11.9023 21.6576 11.9023 21.293C11.9023 20.9284 12.026 20.6224 12.2734 20.375C12.5339 20.1146 12.8464 19.9844 13.2109 19.9844H18.25C18.4974 19.9844 18.6992 19.9062 18.8555 19.75C19.0247 19.5807 19.1484 19.3919 19.2266 19.1836C19.3047 18.9622 19.3438 18.7409 19.3438 18.5195C19.3438 18.3112 19.3047 18.1029 19.2266 17.8945C19.1484 17.6732 19.0247 17.4844 18.8555 17.3281C18.6992 17.1589 18.4974 17.0677 18.25 17.0547H11.375C11.0365 17.0677 10.8672 17.237 10.8672 17.5625V24.9258ZM35.0273 24.9258V20.2188C35.0273 19.8932 34.8581 19.724 34.5195 19.7109H27.6836C27.4362 19.724 27.2214 19.8346 27.0391 20.043C26.8568 20.2383 26.7201 20.4727 26.6289 20.7461C26.5508 21.0065 26.5117 21.2734 26.5117 21.5469C26.5117 21.8073 26.5508 22.0742 26.6289 22.3477C26.7201 22.6081 26.8568 22.8424 27.0391 23.0508C27.2214 23.2461 27.4362 23.3438 27.6836 23.3438H32.6836C33.0482 23.3438 33.3542 23.474 33.6016 23.7344C33.862 23.9818 33.9922 24.2878 33.9922 24.6523C33.9922 25.0169 33.862 25.3229 33.6016 25.5703C33.3542 25.8307 33.0482 25.9609 32.6836 25.9609H27.7617C26.8503 25.9479 26.0951 25.694 25.4961 25.1992C24.9102 24.6914 24.487 24.125 24.2266 23.5C23.9792 22.862 23.8555 22.2044 23.8555 21.5273C23.8555 20.8763 23.9857 20.2383 24.2461 19.6133C24.5065 18.9753 24.9297 18.4089 25.5156 17.9141C26.1016 17.4062 26.9674 17.1328 28.1133 17.0938H36.3164C36.681 17.0938 36.9935 17.2174 37.2539 17.4648C37.5143 17.6992 37.651 17.9987 37.6641 18.3633V24.9258C37.6641 25.2904 37.5273 25.5964 37.2539 25.8438C36.9935 26.0781 36.681 26.1953 36.3164 26.1953C35.5352 26.1302 35.1055 25.707 35.0273 24.9258ZM41.4922 16.8594C41.8568 16.8594 42.1693 16.9831 42.4297 17.2305C42.6901 17.4648 42.8268 17.7643 42.8398 18.1289V20.1016C42.8268 20.6354 42.8594 21.1302 42.9375 21.5859C43.0286 22.0286 43.237 22.4258 43.5625 22.7773C43.888 23.1289 44.2982 23.3177 44.793 23.3438H50.0078V18.168C50.0078 17.8034 50.138 17.5039 50.3984 17.2695C50.6719 17.0221 50.9909 16.8984 51.3555 16.8984C52.1367 16.9635 52.5664 17.3867 52.6445 18.168V24.5352C52.6445 25.5768 52.5013 26.5599 52.2148 27.4844C51.9544 28.3047 51.5247 28.9948 50.9258 29.5547C50.3398 30.1276 49.5911 30.4401 48.6797 30.4922H41.9219C41.5703 30.4792 41.2708 30.349 41.0234 30.1016C40.7891 29.8672 40.6654 29.5742 40.6523 29.2227C40.6523 28.8581 40.7695 28.5456 41.0039 28.2852C41.2513 28.0247 41.5573 27.888 41.9219 27.875H48.0156C48.5104 27.849 48.9206 27.6602 49.2461 27.3086C49.5716 26.957 49.7799 26.5469 49.8711 26.0781C49.8841 26.0391 49.8906 26 49.8906 25.9609H44.1289C43.2174 25.9089 42.4622 25.6029 41.8633 25.043C41.2773 24.4701 40.8542 23.7734 40.5938 22.9531C40.3464 22.1328 40.2161 21.2604 40.2031 20.3359V18.1289C40.2161 17.7773 40.3464 17.4844 40.5938 17.25C40.8411 17.0026 41.1406 16.8724 41.4922 16.8594ZM56.5508 14.125C56.9023 14.138 57.2018 14.2682 57.4492 14.5156C57.6966 14.75 57.8268 15.043 57.8398 15.3945V24.9648C57.7617 25.7461 57.332 26.1693 56.5508 26.2344C56.1862 26.2344 55.8672 26.1172 55.5938 25.8828C55.3333 25.6354 55.2031 25.3294 55.2031 24.9648V15.3945C55.2161 15.0299 55.3529 14.7305 55.6133 14.4961C55.8737 14.2487 56.1862 14.125 56.5508 14.125ZM64.3242 25.9609C63.1784 25.9219 62.3125 25.6549 61.7266 25.1602C61.1406 24.6523 60.7174 24.0859 60.457 23.4609C60.1966 22.8229 60.0664 22.1784 60.0664 21.5273C60.0664 20.8503 60.1901 20.1992 60.4375 19.5742C60.6979 18.9362 61.1211 18.3698 61.707 17.875C62.306 17.3672 63.0612 17.1068 63.9727 17.0938H71.3945C71.7591 17.0938 72.0651 17.2174 72.3125 17.4648C72.5729 17.6992 72.7031 17.9857 72.7031 18.3242C72.7031 18.6758 72.5729 18.9753 72.3125 19.2227C72.0651 19.457 71.7591 19.5742 71.3945 19.5742H64.0898C63.8034 19.5742 63.5495 19.6719 63.3281 19.8672C63.1198 20.0625 62.9635 20.3164 62.8594 20.6289C62.7682 20.9414 62.7227 21.2474 62.7227 21.5469C62.7227 21.8724 62.7682 22.1914 62.8594 22.5039C62.9635 22.8164 63.1198 23.0703 63.3281 23.2656C63.5495 23.4479 63.8034 23.5456 64.0898 23.5586H71.3945C71.7591 23.5586 72.0651 23.6758 72.3125 23.9102C72.5729 24.1445 72.7031 24.4245 72.7031 24.75C72.7031 25.0885 72.5729 25.375 72.3125 25.6094C72.0651 25.8438 71.7591 25.9609 71.3945 25.9609H64.3242ZM72.4688 21.4883C72.4688 21.7357 72.3581 21.9505 72.1367 22.1328C71.9414 22.3021 71.694 22.3867 71.3945 22.3867H65.0078C64.7083 22.3867 64.4544 22.3021 64.2461 22.1328C64.0378 21.9505 63.9336 21.7357 63.9336 21.4883C63.9336 21.2539 64.0378 21.0456 64.2461 20.8633C64.4544 20.694 64.7083 20.6094 65.0078 20.6094H71.3945C71.694 20.6094 71.9479 20.7005 72.1562 20.8828C72.3646 21.0521 72.4688 21.2539 72.4688 21.4883ZM87.3516 18.2266C87.3516 18.5521 87.2214 18.8255 86.9609 19.0469C86.7135 19.2552 86.4076 19.3594 86.043 19.3594H77.7812C77.612 19.3594 77.4753 19.3919 77.3711 19.457C77.2669 19.5221 77.1888 19.5938 77.1367 19.6719C77.0846 19.737 77.0586 19.7956 77.0586 19.8477C77.0586 19.9128 77.0846 19.9844 77.1367 20.0625C77.1888 20.1276 77.2669 20.1927 77.3711 20.2578C77.4753 20.3099 77.612 20.3424 77.7812 20.3555H84.168C84.9883 20.3685 85.6654 20.5312 86.1992 20.8438C86.7331 21.1432 87.1107 21.5013 87.332 21.918C87.5664 22.3216 87.6836 22.7318 87.6836 23.1484C87.6836 23.5521 87.5664 23.9622 87.332 24.3789C87.0977 24.7826 86.7135 25.1406 86.1797 25.4531C85.6589 25.7526 84.9883 25.9023 84.168 25.9023C84.0247 25.9154 83.9206 25.9219 83.8555 25.9219H76.2773C75.9128 25.9219 75.6003 25.8177 75.3398 25.6094C75.0924 25.388 74.9688 25.1211 74.9688 24.8086C74.9688 24.4831 75.099 24.2096 75.3594 23.9883C75.6068 23.7799 75.9128 23.6758 76.2773 23.6758H84.3242C84.5195 23.6888 84.6758 23.6628 84.793 23.5977C84.9232 23.5326 85.0208 23.4609 85.0859 23.3828C85.151 23.3047 85.1836 23.2266 85.1836 23.1484C85.1836 23.1094 85.151 23.0443 85.0859 22.9531C85.0208 22.849 84.9232 22.7708 84.793 22.7188C84.6758 22.6536 84.5195 22.6146 84.3242 22.6016H77.918C77.1628 22.5885 76.5378 22.4323 76.043 22.1328C75.5482 21.8203 75.1966 21.4622 74.9883 21.0586C74.7799 20.6549 74.6758 20.2513 74.6758 19.8477C74.6758 19.444 74.7799 19.0469 74.9883 18.6562C75.2096 18.2526 75.5612 17.9076 76.043 17.6211C76.5378 17.3216 77.1628 17.1589 77.918 17.1328C78.0482 17.1198 78.1458 17.1133 78.2109 17.1133H86.043C86.4076 17.1133 86.7135 17.224 86.9609 17.4453C87.2214 17.6536 87.3516 17.9141 87.3516 18.2266ZM100.77 24.9258V20.2188C100.77 19.8932 100.6 19.724 100.262 19.7109H93.4258C93.1784 19.724 92.9635 19.8346 92.7812 20.043C92.599 20.2383 92.4622 20.4727 92.3711 20.7461C92.293 21.0065 92.2539 21.2734 92.2539 21.5469C92.2539 21.8073 92.293 22.0742 92.3711 22.3477C92.4622 22.6081 92.599 22.8424 92.7812 23.0508C92.9635 23.2461 93.1784 23.3438 93.4258 23.3438H98.4258C98.7904 23.3438 99.0964 23.474 99.3438 23.7344C99.6042 23.9818 99.7344 24.2878 99.7344 24.6523C99.7344 25.0169 99.6042 25.3229 99.3438 25.5703C99.0964 25.8307 98.7904 25.9609 98.4258 25.9609H93.5039C92.5924 25.9479 91.8372 25.694 91.2383 25.1992C90.6523 24.6914 90.2292 24.125 89.9688 23.5C89.7214 22.862 89.5977 22.2044 89.5977 21.5273C89.5977 20.8763 89.7279 20.2383 89.9883 19.6133C90.2487 18.9753 90.6719 18.4089 91.2578 17.9141C91.8438 17.4062 92.7096 17.1328 93.8555 17.0938H102.059C102.423 17.0938 102.736 17.2174 102.996 17.4648C103.257 17.6992 103.393 17.9987 103.406 18.3633V24.9258C103.406 25.2904 103.27 25.5964 102.996 25.8438C102.736 26.0781 102.423 26.1953 102.059 26.1953C101.277 26.1302 100.848 25.707 100.77 24.9258Z" fill="#EC602E"/>
</svg>
