<svg width="176" height="176" viewBox="0 0 176 176" fill="none" xmlns="http://www.w3.org/2000/svg">
<rect width="176" height="176" rx="88" fill="#FF4400" fill-opacity="0.47"/>
<path d="M94.561 139.318L53.3831 120.024C51.1089 118.959 50.125 116.242 51.1854 113.957L73.2674 66.374C79.6302 52.663 95.8498 46.7311 109.495 53.1248C123.14 59.5183 129.044 75.8161 122.681 89.5273L100.599 137.11C99.5385 139.395 96.8354 140.384 94.561 139.318Z" fill="#A62C18"/>
<path d="M120.72 134.23H75.5095C73.0125 134.23 70.9885 132.183 70.9885 129.657V77.0694C70.9885 61.9163 83.1333 49.6322 98.115 49.6322C113.096 49.6322 125.241 61.9161 125.241 77.0694V129.657C125.241 132.183 123.217 134.23 120.72 134.23Z" fill="#FE5A3A"/>
<path d="M105.742 65.4316C104.954 68.6193 101.929 70.5113 98.9864 69.657C96.0439 68.8027 94.2975 65.5262 95.0861 62.3385C95.8745 59.1509 98.8991 57.2589 101.842 58.1132C104.784 58.9673 106.53 62.2436 105.742 65.4316Z" fill="#A62C18"/>
<path d="M112.572 114.919H82.7382C81.3275 114.919 80.184 113.741 80.184 112.288V83.5279C80.184 82.0746 81.3275 80.8965 82.7382 80.8965H112.572C113.983 80.8965 115.126 82.0746 115.126 83.5279V112.288C115.126 113.741 113.983 114.919 112.572 114.919Z" fill="#DBDBDB"/>
<path d="M112.524 51.2568L113.87 46.2278C114.539 43.7262 114.197 41.1124 112.908 38.8678C111.614 36.6152 109.522 35.004 107.016 34.3318C101.857 32.9464 96.5329 36.0273 95.1496 41.1979L93.2211 48.4053C79.8649 51.0391 69.7582 62.8956 69.7582 77.0805V126.373L53.045 118.567C52.3467 118.241 51.8176 117.663 51.5553 116.938C51.2944 116.217 51.3289 115.438 51.6525 114.743L66.702 82.4199C67.0977 81.5703 66.7331 80.559 65.8875 80.1612C65.0419 79.7634 64.0361 80.1299 63.6403 80.9799L48.5909 113.303C47.884 114.821 47.8088 116.525 48.3791 118.1C48.9508 119.679 50.1021 120.939 51.6209 121.649L69.774 130.127C70.0027 133.385 72.7132 135.965 76.0121 135.965H82.1769L93.0551 141C93.9076 141.398 94.8049 141.586 95.689 141.586C98.0482 141.586 100.312 140.244 101.374 137.964L102.305 135.965H121.747C125.195 135.965 128 133.146 128 129.68V77.0805C128 65.9019 121.722 56.1692 112.524 51.2568ZM98.4136 42.08C99.3138 38.7157 102.782 36.7119 106.144 37.6142C107.776 38.0523 109.139 39.1006 109.981 40.5667C110.818 42.0244 111.04 43.7216 110.605 45.3459L109.407 49.8233C106.155 48.5558 102.62 47.86 98.9279 47.86H98.8296C98.1642 47.86 97.5034 47.8827 96.8492 47.9271L98.4136 42.08ZM98.3118 136.524C97.6403 137.966 95.921 138.591 94.474 137.916L90.2588 135.965H98.5721L98.3118 136.524ZM124.619 129.679C124.619 131.272 123.33 132.568 121.746 132.568H82.585C82.5601 132.567 82.5356 132.567 82.511 132.568H76.0118C74.4274 132.568 73.1384 131.272 73.1384 129.679V129.074C73.1388 129.049 73.1388 129.024 73.1384 128.999V77.0805C73.1384 65.1351 81.2495 55.058 92.2268 52.1219L91.5997 54.4665C90.9305 56.9681 91.2719 59.5819 92.5611 61.8265C92.702 62.0715 92.8523 62.3091 93.0114 62.5388C92.6815 64.2801 92.98 66.0633 93.8715 67.6153C94.8603 69.3369 96.4594 70.5678 98.3737 71.0816C102.316 72.1391 106.384 69.7857 107.441 65.8342C107.952 63.9221 107.691 61.9242 106.706 60.2085C105.717 58.4869 104.118 57.2559 102.204 56.7422C99.494 56.0156 96.7259 56.8996 94.9159 58.8063C94.5774 57.6913 94.5551 56.5016 94.8636 55.3484L95.9139 51.4226C96.871 51.3137 97.8437 51.2574 98.8294 51.2574H98.9277C113.094 51.2574 124.619 62.8418 124.619 77.0807V129.679H124.619ZM98.4531 66.3623C100.119 66.8094 101.859 66.7924 103.491 66.3509C102.529 67.6098 100.868 68.2345 99.2459 67.7989C98.2048 67.5197 97.3359 66.8508 96.7991 65.9162C96.7579 65.8445 96.7192 65.772 96.6828 65.6989C97.2437 65.974 97.836 66.1965 98.4531 66.3623ZM96.8672 61.7916C97.7783 60.3223 99.578 59.5539 101.332 60.0242C102.373 60.3034 103.242 60.9723 103.779 61.9069C103.886 62.0935 103.977 62.2866 104.053 62.4837C102.626 63.2826 100.923 63.5081 99.3251 63.0797C98.405 62.8328 97.5709 62.3919 96.8672 61.7916ZM113.89 80.0011H83.8681C81.5219 80.0011 79.6132 81.9198 79.6132 84.2778V112.396C79.6132 114.754 81.5221 116.673 83.8681 116.673H113.89C116.236 116.673 118.145 114.754 118.145 112.396V84.2778C118.145 81.9196 116.236 80.0011 113.89 80.0011ZM114.764 112.396C114.764 112.881 114.372 113.275 113.89 113.275H83.8681C83.3856 113.275 82.9935 112.88 82.9935 112.396V84.2776C82.9935 83.7927 83.3861 83.3985 83.8681 83.3985H113.89C114.372 83.3985 114.764 83.7929 114.764 84.2776V112.396ZM108.57 90.3239C108.57 91.2623 107.813 92.0226 106.88 92.0226H90.8782C89.9448 92.0226 89.1882 91.2621 89.1882 90.3239C89.1882 89.3857 89.945 88.6252 90.8782 88.6252H106.88C107.813 88.625 108.57 89.3855 108.57 90.3239ZM108.57 106.35C108.57 107.288 107.813 108.048 106.88 108.048H102.308C101.374 108.048 100.618 107.288 100.618 106.35C100.618 105.411 101.374 104.651 102.308 104.651H106.88C107.813 104.651 108.57 105.411 108.57 106.35ZM108.57 97.1917C108.57 98.1302 107.813 98.8904 106.88 98.8904H90.8782C89.9448 98.8904 89.1882 98.1299 89.1882 97.1917C89.1882 96.2535 89.945 95.493 90.8782 95.493H106.88C107.813 95.493 108.57 96.2535 108.57 97.1917Z" fill="black"/>
</svg>
