<svg width="176" height="176" viewBox="0 0 176 176" fill="none" xmlns="http://www.w3.org/2000/svg">
<rect width="176" height="176" rx="88" fill="#FF4400" fill-opacity="0.47"/>
<path d="M142.169 68.4221L106.946 33.1986C104.936 31.1887 101.62 31.1887 99.6098 33.1986L89.7111 43.0974L84.6863 48.1221L46.1968 86.6117C44.1869 88.6216 44.1869 91.9379 46.1968 93.9478L81.4202 129.171C83.4301 131.181 86.7465 131.181 88.7564 129.171L142.22 75.708C144.179 73.7483 144.179 70.432 142.169 68.4221Z" fill="#EF6D7A"/>
<path d="M142.722 67.9196L107.499 32.6962C106.393 31.5907 104.886 30.9375 103.278 30.9375C101.67 30.9375 100.213 31.5405 99.0571 32.6962L89.1584 42.5949C88.8569 42.8964 88.8569 43.3486 89.1584 43.6501C89.4599 43.9516 89.9121 43.9516 90.2136 43.6501L100.112 33.7514C100.967 32.8972 102.072 32.4449 103.228 32.4449C104.383 32.4449 105.539 32.8972 106.343 33.7514L141.566 68.9748C142.421 69.829 142.873 70.9345 142.873 72.0902C142.873 73.2459 142.421 74.4015 141.566 75.2055L88.2037 128.669C87.3495 129.523 86.244 129.975 85.0883 129.975C83.8824 129.975 82.7769 129.523 81.973 128.669L46.7495 93.4453C45.8953 92.5911 45.4431 91.4857 45.4431 90.33C45.4431 89.1743 45.8953 88.0186 46.7495 87.2146L85.2391 48.7251C85.5406 48.4236 85.5406 47.9714 85.2391 47.6699C84.9376 47.3684 84.4854 47.3684 84.1839 47.6699L45.6943 86.1595C44.5889 87.2649 43.9357 88.7723 43.9357 90.3802C43.9357 91.9882 44.5386 93.4453 45.6943 94.601L80.9178 129.824C82.0232 130.93 83.5307 131.583 85.1386 131.583C86.7465 131.583 88.2037 130.98 89.3594 129.824L142.823 76.3612C143.928 75.2558 144.581 73.7483 144.581 72.1404C144.581 70.5325 143.828 69.0251 142.722 67.9196Z" fill="#3A312A"/>
<path d="M110.956 37.2315L50.1647 98.0233L58.1589 106.018L118.951 45.2258L110.956 37.2315Z" fill="#87796F"/>
<path d="M119.508 44.7053L111.518 36.716C111.217 36.4145 110.765 36.4145 110.463 36.716L49.6639 97.5154C49.3624 97.8169 49.3624 98.2691 49.6639 98.5706L57.6532 106.56C57.8039 106.711 58.0049 106.761 58.2059 106.761C58.4069 106.761 58.6079 106.66 58.7586 106.56L119.558 45.7605C119.709 45.6098 119.759 45.4088 119.759 45.2078C119.759 45.0068 119.659 44.8058 119.508 44.7053ZM58.1557 104.952L51.2718 98.0178L110.966 38.2736L117.9 45.2078L58.1557 104.952Z" fill="#3A312A"/>
<path d="M113.428 84.0491H37.8055C34.9414 84.0491 32.63 86.3605 32.63 89.2246V114.951V122.086V139.02C32.63 141.884 34.9414 144.195 37.8055 144.195H113.428C116.292 144.195 118.603 141.884 118.603 139.02V89.2246C118.603 86.3605 116.292 84.0491 113.428 84.0491Z" fill="#FCE8CB"/>
<path d="M113.428 83.2953H37.8054C34.5393 83.2953 31.8762 85.9585 31.8762 89.2246V114.951C31.8762 115.353 32.228 115.705 32.6299 115.705C33.0319 115.705 33.3836 115.353 33.3836 114.951V89.2246C33.3836 86.7624 35.3935 84.8028 37.8054 84.8028H113.428C115.89 84.8028 117.85 86.8127 117.85 89.2246V139.02C117.85 141.482 115.84 143.442 113.428 143.442H37.8054C35.3433 143.442 33.3836 141.432 33.3836 139.02V122.086C33.3836 121.684 33.0319 121.333 32.6299 121.333C32.228 121.333 31.8762 121.684 31.8762 122.086V139.02C31.8762 142.286 34.5393 144.949 37.8054 144.949H113.428C116.694 144.949 119.357 142.286 119.357 139.02V89.2246C119.357 85.9585 116.694 83.2953 113.428 83.2953Z" fill="#3A312A"/>
<path d="M47.9554 36.8667C47.4529 42.6954 41.4232 43.5999 41.4232 43.5999C46.5987 43.8511 47.9051 50.6847 47.9051 50.6847C48.0056 45.8107 54.5881 43.5496 54.5881 43.5496C49.6638 43.2481 47.9554 36.8667 47.9554 36.8667Z" fill="#D5DE58"/>
<path d="M54.6384 42.7959C50.3171 42.5447 48.7092 36.7662 48.6589 36.716C48.5584 36.3642 48.2067 36.113 47.855 36.1632C47.5032 36.2135 47.2018 36.4647 47.1515 36.8667C46.6993 41.9919 41.4735 42.8964 41.2223 42.8964C40.8203 42.9466 40.5691 43.2984 40.5691 43.7004C40.5691 44.1023 40.9208 44.4038 41.2726 44.4038C45.7948 44.6048 47.051 50.7852 47.051 50.8355C47.1013 51.1872 47.453 51.4385 47.8047 51.4385H47.855C48.257 51.3882 48.5584 51.0867 48.5584 50.6847C48.7594 46.4137 54.7891 44.2531 54.8394 44.2531C55.1911 44.1526 55.3921 43.8008 55.3418 43.4491C55.2916 43.0974 54.9901 42.7959 54.6384 42.7959ZM47.8047 47.9714C47.1013 46.4137 45.9456 44.5043 43.9859 43.4994C45.4431 42.7959 47.2018 41.5397 48.1062 39.3288C48.9102 40.8865 50.2166 42.7959 52.2767 43.7004C50.8196 44.5546 48.8097 45.9615 47.8047 47.9714Z" fill="#3A312A"/>
<path d="M37.0517 45.4088C36.7 49.529 32.429 50.1823 32.429 50.1823C36.097 50.333 37.0015 55.1568 37.0015 55.1568C37.102 51.7399 41.7247 50.132 41.7247 50.132C38.2577 49.931 37.0517 45.4088 37.0517 45.4088Z" fill="#D5DE58"/>
<path d="M41.775 49.3783C38.8606 49.2276 37.7552 45.258 37.7552 45.2078C37.6547 44.856 37.303 44.6048 36.9512 44.6551C36.5995 44.7053 36.298 44.9565 36.2478 45.3585C35.9463 48.8256 32.429 49.4286 32.2782 49.4286C31.8762 49.4788 31.625 49.8305 31.625 50.2325C31.625 50.6345 31.9767 50.936 32.3285 50.936C35.3433 51.0867 36.1975 55.2573 36.1975 55.3075C36.2478 55.6592 36.5995 55.9105 36.9512 55.9105H37.0015C37.4035 55.8602 37.7049 55.5588 37.7049 55.1568C37.7552 52.2927 41.8755 50.8355 41.9257 50.7852C42.2775 50.6847 42.4785 50.333 42.4282 49.9813C42.4282 49.6798 42.1267 49.3783 41.775 49.3783ZM36.9512 52.7951C36.499 51.8404 35.7955 50.8355 34.7403 50.132C35.695 49.6296 36.5995 48.8256 37.2025 47.6699C37.7552 48.6246 38.5591 49.6798 39.6646 50.2828C38.7099 50.8355 37.6547 51.6394 36.9512 52.7951Z" fill="#3A312A"/>
<path d="M37.0014 32.0429C36.6497 36.1632 32.3787 36.8164 32.3787 36.8164C36.0467 36.9672 37.0014 41.7909 37.0014 41.7909C37.0517 38.3741 41.7247 36.716 41.7247 36.716C38.2576 36.515 37.0014 32.0429 37.0014 32.0429Z" fill="#D5DE58"/>
<path d="M41.775 35.9623C38.9109 35.8115 37.7552 31.8922 37.7552 31.842C37.6547 31.4902 37.303 31.239 36.9512 31.2892C36.5995 31.3395 36.298 31.5907 36.2478 31.9927C35.9463 35.4598 32.429 36.0627 32.2782 36.0627C31.8762 36.113 31.625 36.4647 31.625 36.8667C31.625 37.2687 31.9767 37.5702 32.3285 37.5702C35.3433 37.7209 36.2478 41.8915 36.2478 41.9417C36.298 42.2934 36.6497 42.5447 37.0015 42.5447H37.0517C37.4537 42.4944 37.7552 42.1929 37.7552 41.791C37.8054 38.9269 41.9257 37.4194 41.976 37.4194C42.3277 37.3189 42.5287 36.9672 42.4785 36.6155C42.4282 36.2637 42.1267 35.9623 41.775 35.9623ZM37.0015 39.3791C36.5493 38.4244 35.7955 37.4194 34.7403 36.716C35.695 36.2135 36.5995 35.4095 37.2025 34.2538C37.7552 35.2085 38.5591 36.2135 39.7148 36.8667C38.7601 37.4194 37.6547 38.2736 37.0015 39.3791Z" fill="#3A312A"/>
<path d="M65.9441 107.364H42.6795C42.2775 107.364 41.9258 107.716 41.9258 108.118C41.9258 108.52 42.2775 108.871 42.6795 108.871H65.9441C66.346 108.871 66.6978 108.52 66.6978 108.118C66.6978 107.716 66.346 107.364 65.9441 107.364Z" fill="#3A312A"/>
<path d="M109.006 133.442H42.6795C42.2775 133.442 41.9258 133.794 41.9258 134.196C41.9258 134.598 42.2775 134.95 42.6795 134.95H109.006C109.408 134.95 109.76 134.598 109.76 134.196C109.76 133.794 109.408 133.442 109.006 133.442Z" fill="#3A312A"/>
<path d="M65.9441 96.9124H42.6795C42.2775 96.9124 41.9258 97.2641 41.9258 97.6661C41.9258 98.0681 42.2775 98.4198 42.6795 98.4198H65.9441C66.346 98.4198 66.6978 98.0681 66.6978 97.6661C66.6978 97.2641 66.346 96.9124 65.9441 96.9124Z" fill="#3A312A"/>
<path d="M121.216 143.944C133.621 143.944 143.677 133.888 143.677 121.483C143.677 109.079 133.621 99.0228 121.216 99.0228C108.812 99.0228 98.7556 109.079 98.7556 121.483C98.7556 133.888 108.812 143.944 121.216 143.944Z" fill="#D5DE58"/>
<path d="M121.216 98.2691C108.403 98.2691 98.0018 108.67 98.0018 121.483C98.0018 134.297 108.403 144.748 121.216 144.748C134.029 144.748 144.43 134.347 144.43 121.534C144.43 108.721 134.029 98.2691 121.216 98.2691ZM121.216 143.241C109.257 143.241 99.5093 133.493 99.5093 121.534C99.5093 109.575 109.257 99.8268 121.216 99.8268C133.175 99.8268 142.923 109.575 142.923 121.534C142.923 133.493 133.175 143.241 121.216 143.241Z" fill="#3A312A"/>
<path d="M121.266 105.706C117.046 105.706 113.629 109.123 113.629 113.343V119.222C113.629 120.177 114.433 120.981 115.387 120.981C116.342 120.981 117.146 120.177 117.146 119.222V113.343C117.146 111.032 119.005 109.173 121.317 109.173C123.628 109.173 125.487 111.032 125.487 113.343V119.222C125.487 120.177 126.291 120.981 127.246 120.981C128.201 120.981 129.005 120.177 129.005 119.222V113.343C128.904 109.123 125.487 105.706 121.266 105.706Z" fill="#87796F"/>
<path d="M121.266 104.952C116.644 104.952 112.875 108.721 112.875 113.343V119.222C112.875 120.579 113.981 121.735 115.387 121.735C116.794 121.735 117.9 120.629 117.9 119.222V113.343C117.9 111.484 119.407 109.926 121.317 109.926C123.226 109.926 124.734 111.434 124.734 113.343V119.222C124.734 120.579 125.839 121.735 127.246 121.735C128.653 121.735 129.758 120.629 129.758 119.222V113.343C129.658 108.721 125.889 104.952 121.266 104.952ZM128.15 119.222C128.15 119.775 127.698 120.227 127.145 120.227C126.593 120.227 126.14 119.775 126.14 119.222V113.343C126.14 110.63 123.93 108.419 121.216 108.419C118.503 108.419 116.292 110.63 116.292 113.343V119.222C116.292 119.775 115.84 120.227 115.287 120.227C114.734 120.227 114.282 119.775 114.282 119.222V113.343C114.282 109.525 117.397 106.459 121.166 106.459C124.935 106.459 128.05 109.575 128.05 113.343L128.15 119.222Z" fill="#3A312A"/>
<path d="M126.643 118.67H115.84C113.679 118.67 111.92 120.428 111.92 122.589V133.392C111.92 135.553 113.679 137.311 115.84 137.311H126.643C128.804 137.311 130.562 135.553 130.562 133.392V122.589C130.562 120.428 128.804 118.67 126.643 118.67Z" fill="#EF6D7A"/>
<path d="M126.643 117.916H115.84C113.277 117.916 111.167 120.026 111.167 122.589V133.392C111.167 135.955 113.277 138.065 115.84 138.065H126.643C129.206 138.065 131.316 135.955 131.316 133.392V122.589C131.316 120.026 129.206 117.916 126.643 117.916ZM129.809 133.342C129.809 135.1 128.402 136.507 126.643 136.507H115.84C114.081 136.507 112.674 135.1 112.674 133.342V122.539C112.674 120.78 114.081 119.373 115.84 119.373H126.643C128.402 119.373 129.809 120.78 129.809 122.539V133.342Z" fill="#3A312A"/>
<path d="M121.266 122.79C119.709 122.79 118.453 124.046 118.453 125.604C118.453 126.709 119.106 127.714 120.061 128.166V131.885C120.061 132.538 120.613 133.091 121.266 133.091C121.92 133.091 122.472 132.538 122.472 131.885V128.166C123.427 127.714 124.08 126.759 124.08 125.604C124.08 124.096 122.824 122.79 121.266 122.79Z" fill="#87796F"/>
<path d="M121.267 122.036C119.307 122.036 117.699 123.644 117.699 125.604C117.699 126.81 118.302 127.915 119.307 128.619V131.885C119.307 132.99 120.211 133.844 121.267 133.844C122.322 133.844 123.226 132.94 123.226 131.885V128.619C124.231 127.965 124.834 126.86 124.834 125.604C124.834 123.644 123.226 122.036 121.267 122.036ZM122.171 127.513C121.92 127.614 121.719 127.915 121.719 128.217V131.935C121.719 132.186 121.518 132.387 121.267 132.387C121.015 132.387 120.814 132.186 120.814 131.935V128.217C120.814 127.915 120.664 127.664 120.362 127.513C119.608 127.161 119.156 126.458 119.156 125.654C119.156 124.498 120.111 123.594 121.216 123.594C122.322 123.594 123.276 124.549 123.276 125.654C123.327 126.458 122.874 127.161 122.171 127.513Z" fill="#3A312A"/>
<path d="M106.443 33.7513C105.589 32.8971 104.484 32.4449 103.328 32.4449C102.122 32.4449 101.017 32.8971 100.213 33.7513L98.8561 35.108L105.438 41.7407L109.911 37.2687L106.443 33.7513Z" fill="#D34E5C"/>
<path d="M141.667 68.9748L118.955 46.263L114.483 50.735L132.12 68.3719C134.13 70.3817 134.13 73.6981 132.12 75.708L119.307 88.5211C119.357 88.7221 119.357 88.9733 119.357 89.2245V97.5154L141.617 75.2557C142.471 74.4015 142.923 73.2961 142.923 72.1404C142.923 70.9345 142.471 69.7788 141.667 68.9748Z" fill="#D34E5C"/>
<path d="M110.964 38.3329L106.49 42.8122L113.422 49.7366L117.897 45.2573L110.964 38.3329Z" fill="#695B51"/>
</svg>
